# xmcd CD database file
# Copyright (C) 1995-1998 Ti Kan
#
# Track frame offsets:
#	150
#	23159
#	39180
#	59448
#	86428
#	106031
#	118592
#	143200
#	170976
#	188577
#
# Disc length: 2768 seconds
#
# Revision: 1
# Processed by: cddbd v1.5.1PL0 Copyright (c) Steve Scherf et al.
# Submitted via: CDex 1.30Release
#
DISCID=7c0ace0a
DTITLE=Boo Boo Davis - Can Man
DYEAR=1900
DGENRE=Blues
TTITLE0=Big House All By Myself
TTITLE1=Ah Ah Baby
TTITLE2=Can Man
TTITLE3=Headache
TTITLE4=Red Door
TTITLE5=Boo's Boogie Woogie
TTITLE6=Keep On Lovin' Me Baby
TTITLE7=Lovin' Somebody Else
TTITLE8=Amsterdam Blues
TTITLE9=Right On
EXTD=ID3G:   0
EXTT0=
EXTT1=
EXTT2=
EXTT3=
EXTT4=
EXTT5=
EXTT6=
EXTT7=
EXTT8=
EXTT9=
PLAYORDER=
